<svg width="19" height="17" viewBox="0 0 19 17" fill="none" xmlns="http://www.w3.org/2000/svg">
<path d="M2.58589 5.77987C4.01403 5.77987 5.17178 4.62213 5.17178 3.19398C5.17178 1.76583 4.01403 0.608093 2.58589 0.608093C1.15774 0.608093 0 1.76583 0 3.19398C0 4.62213 1.15774 5.77987 2.58589 5.77987Z" fill="#332F3D"/>
<path d="M16.3774 5.77987C17.8055 5.77987 18.9633 4.62213 18.9633 3.19398C18.9633 1.76583 17.8055 0.608093 16.3774 0.608093C14.9492 0.608093 13.7915 1.76583 13.7915 3.19398C13.7915 4.62213 14.9492 5.77987 16.3774 5.77987Z" fill="#332F3D"/>
<path d="M2.58589 17C4.01403 17 5.17178 15.8423 5.17178 14.4141C5.17178 12.986 4.01403 11.8282 2.58589 11.8282C1.15774 11.8282 0 12.986 0 14.4141C0 15.8423 1.15774 17 2.58589 17Z" fill="#332F3D"/>
<path d="M16.3774 17C17.8055 17 18.9633 15.8423 18.9633 14.4141C18.9633 12.986 17.8055 11.8282 16.3774 11.8282C14.9492 11.8282 13.7915 12.986 13.7915 14.4141C13.7915 15.8423 14.9492 17 16.3774 17Z" fill="#332F3D"/>
</svg>
