<svg width="77" height="23" viewBox="0 0 77 23" fill="none" xmlns="http://www.w3.org/2000/svg">
<path d="M29.8437 22.6667C28.7381 22.6667 27.8398 22.6 27.1488 22.4C26.4578 22.2 25.905 22 25.4904 21.6667C25.0757 21.3334 24.7993 20.9334 24.592 20.4667C24.4538 20 24.3156 19.4667 24.3156 18.8667V17.5334C24.3156 16.9334 24.3847 16.4 24.5229 15.9334C24.6611 15.4667 24.9375 15.0667 25.3521 14.7334C25.7668 14.4 26.2505 14.1334 26.9415 14C27.6325 13.8 28.4617 13.7334 29.4982 13.7334H40.5542V13.4C40.5542 12.4667 40.3469 11.8667 40.0014 11.5334C39.5868 11.2 38.9649 11.0667 38.0666 11.0667H27.2179C25.6286 11.0667 24.3156 9.80003 24.3156 8.26669H38.0666C39.2413 8.26669 40.2778 8.40003 41.107 8.60003C41.9362 8.80003 42.6272 9.13336 43.1801 9.60003C43.7329 10.0667 44.0784 10.6 44.3548 11.2667C44.6312 11.9334 44.7003 12.7334 44.7003 13.6667V17.2C44.7003 18.2667 44.5621 19.1334 44.3548 19.8667C44.1475 20.6 43.802 21.1334 43.2492 21.6C42.6963 22.0667 42.0053 22.3334 41.1761 22.5334C40.2778 22.7334 39.1722 22.8 37.8593 22.8H29.8437V22.6667ZM40.6233 16.1334H29.9819C29.4982 16.1334 29.1527 16.2667 28.8763 16.4667C28.5999 16.6667 28.4617 17.0667 28.4617 17.6V18.6C28.4617 19.1334 28.5999 19.4667 28.8763 19.6667C29.1527 19.8667 29.5673 19.9334 30.1201 19.9334H37.8593C38.343 19.9334 38.7576 19.8667 39.1031 19.8C39.4486 19.7334 39.725 19.6 39.9323 19.4C40.1396 19.2 40.3469 18.9334 40.416 18.6C40.5542 18.2667 40.5542 17.8 40.5542 17.2667V16.1334H40.6233Z" fill="#332F3D"/>
<path d="M18.8982 22.6667C17.3089 22.6667 15.9269 21.4 15.9269 19.8V14.6C15.9269 14 15.8578 13.5334 15.7887 13.1334C15.7196 12.7334 15.5123 12.4667 15.2359 12.2C14.9595 12 14.614 11.8 14.1994 11.7334C13.7848 11.6667 13.232 11.6 12.541 11.6H8.04949C7.42758 11.6 6.87478 11.6667 6.46017 11.7334C6.04557 11.8 5.70007 12 5.42367 12.2C5.14727 12.4 5.00906 12.7334 4.87086 13.1334C4.73266 13.5334 4.73266 14 4.73266 14.6V19.8C4.73266 21.3334 3.41975 22.6667 1.76134 22.6667H0.586639V14.5334C0.586639 13.4 0.72484 12.4 0.932141 11.6C1.13944 10.8 1.55404 10.1334 2.10685 9.66669C2.65965 9.20003 3.41976 8.80003 4.31807 8.60003C5.21637 8.40003 6.39108 8.26669 7.77309 8.26669H12.7483C14.1303 8.26669 15.305 8.40003 16.2033 8.60003C17.1016 8.80003 17.8617 9.20003 18.4145 9.66669C18.9674 10.1334 19.382 10.8 19.5893 11.6C19.7966 12.4 19.9348 13.4 19.9348 14.5334V22.7334H18.8982V22.6667Z" fill="#332F3D"/>
<path d="M55.6846 22.6667C54.3025 22.6667 53.1278 22.5333 52.2295 22.3333C51.3312 22.1333 50.5711 21.7333 50.0183 21.2667C49.4655 20.8 49.0509 20.1333 48.8436 19.3333C48.6363 18.5333 48.4981 17.6 48.4981 16.4V14.4667C48.4981 13.3333 48.6363 12.3333 48.8436 11.5333C49.0509 10.7333 49.4655 10.0667 50.0183 9.60001C50.5711 9.13335 51.3312 8.73335 52.2295 8.53335C53.1278 8.33335 54.3025 8.20001 55.6846 8.20001H60.6598C62.0418 8.20001 63.2165 8.33335 64.1148 8.53335C65.0131 8.73335 65.7732 9.13335 66.326 9.60001C66.8788 10.0667 67.2934 10.7333 67.5007 11.5333C67.708 12.3333 67.8462 13.3333 67.8462 14.4667V16.4C67.8462 17.5333 67.708 18.5333 67.5007 19.3333C67.2934 20.1333 66.8788 20.7333 66.326 21.2667C65.7732 21.8 65.0131 22.1333 64.1148 22.3333C63.2165 22.5333 62.0418 22.6667 60.6598 22.6667H55.6846ZM63.7693 14.6667C63.7693 14.0667 63.7002 13.5333 63.6311 13.2C63.562 12.8 63.3547 12.5333 63.0783 12.2667C62.8019 12.0667 62.4564 11.8667 61.9727 11.8C61.489 11.7333 60.8671 11.6667 60.1761 11.6667H56.3065C55.5464 11.6667 54.9935 11.7333 54.5098 11.8C54.0261 11.8667 53.6806 12 53.4042 12.2667C53.1278 12.4667 52.9205 12.8 52.8514 13.2C52.7823 13.6 52.7132 14.0667 52.7132 14.6667V16.3333C52.7132 16.9333 52.7823 17.4 52.8514 17.8C52.9205 18.2 53.1278 18.4667 53.4042 18.7333C53.6806 18.9333 54.0261 19.1333 54.5098 19.2C54.9935 19.2667 55.6155 19.3333 56.3065 19.3333H60.1761C60.9362 19.3333 61.489 19.2667 61.9727 19.2C62.4564 19.1333 62.8019 18.9333 63.0783 18.7333C63.3547 18.5333 63.562 18.2 63.6311 17.8C63.7002 17.4 63.7693 16.9333 63.7693 16.3333V14.6667Z" fill="#332F3D"/>
<path d="M63.2164 0.999978V5.06664H64.6675C66.0495 5.06664 67.2242 5.19998 68.1225 5.39998C69.0208 5.59998 69.7809 5.99998 70.3337 6.46664C70.8865 6.93331 71.3011 7.59998 71.5084 8.39998C71.7157 9.19998 71.8539 10.2 71.8539 11.3333V11.5333H76C76.1382 1.79998 67.9843 0.933311 64.6675 0.999978" fill="#332F3D"/>
</svg>
